<svg class="border shadow-md" viewBox="0 0 1351.68 675.84" style="width: 1351.68px; height: 675.84px;" xmlns="http://www.w3.org/2000/svg" preserveAspectRatio="none"><rect class="bg" id="bg" x="0" y="0" width="1351.68" height="675.84" fill="#ffffff"/><g transform="rotate(0 675.84 337.92)"><path d="M -775.84 -37.58 S -738.00 -92.58&#10;            0.00 -37.58 377.92 -71.38&#10;            775.84 -37.58 935.68 -93.58&#10;            1551.68 -37.58 1929.60 -80.58&#10;            2327.52 -37.58 h 110 V 875.84 H -775.84 Z" fill="#1BA4FF" id="-1"/><path d="M -775.84 30.00 S -491.00 -25.00&#10;            0.00 30.00 377.92 -27.00&#10;            775.84 30.00 1153.76 -3.79&#10;            1551.68 30.00 1779.52 -3.79&#10;            2327.52 30.00 h 110 V 875.84 H -775.84 Z" fill="#2facff" id="0"/><path d="M -775.84 97.58 S -423.00 63.79&#10;            0.00 97.58 377.92 51.58&#10;            775.84 97.58 1153.76 63.79&#10;            1551.68 97.58 1929.60 32.58&#10;            2327.52 97.58 h 110 V 875.84 H -775.84 Z" fill="#43b4ff" id="1"/><path d="M -775.84 165.17 S -397.92 113.17&#10;            0.00 165.17 362.84 128.17&#10;            775.84 165.17 1153.76 131.38&#10;            1551.68 165.17 1584.52 131.38&#10;            2327.52 165.17 h 110 V 875.84 H -775.84 Z" fill="#57bcff" id="2"/><path d="M -775.84 232.75 S -520.00 198.96&#10;            0.00 232.75 377.92 198.96&#10;            775.84 232.75 1153.76 198.96&#10;            1551.68 232.75 1929.60 172.75&#10;            2327.52 232.75 h 110 V 875.84 H -775.84 Z" fill="#6bc4ff" id="3"/><path d="M -775.84 300.34 S -693.00 250.34&#10;            0.00 300.34 377.92 266.54&#10;            775.84 300.34 1153.76 266.54&#10;            1551.68 300.34 1929.60 264.34&#10;            2327.52 300.34 h 110 V 875.84 H -775.84 Z" fill="#7fccff" id="4"/><path d="M -775.84 367.92 S -397.92 334.13&#10;            0.00 367.92 108.84 334.13&#10;            775.84 367.92 1153.76 333.92&#10;            1551.68 367.92 1691.52 325.92&#10;            2327.52 367.92 h 110 V 875.84 H -775.84 Z" fill="#93d4ff" id="5"/><path d="M -775.84 435.50 S -397.92 401.71&#10;            0.00 435.50 161.84 369.50&#10;            775.84 435.50 808.68 391.50&#10;            1551.68 435.50 1929.60 400.50&#10;            2327.52 435.50 h 110 V 875.84 H -775.84 Z" fill="#a7dcff" id="6"/><path id="7" d="M -775.84 503.09 S -785.00 469.30&#10;            0.00 503.09 377.92 469.30&#10;            775.84 503.09 843.68 449.09&#10;            1551.68 503.09 1929.60 453.09&#10;            2327.52 503.09 h 110 V 875.84 H -775.84 Z" fill="#bbe4ff"/><path id="8" d="M -775.84 570.67 S -397.92 519.67&#10;            0.00 570.67 377.92 536.88&#10;            775.84 570.67 788.68 536.88&#10;            1551.68 570.67 1781.52 525.67&#10;            2327.52 570.67 h 110 V 875.84 H -775.84 Z" fill="#cfecff"/><path id="9" d="M -775.84 638.26 S -397.92 602.26&#10;            0.00 638.26 377.92 604.46&#10;            775.84 638.26 841.68 574.26&#10;            1551.68 638.26 1929.60 603.26&#10;            2327.52 638.26 h 110 V 875.84 H -775.84 Z" fill="#e3f4ff"/></g></svg>