<svg class="border shadow-md" viewBox="0 0 1351.68 675.84" style="width: 1351.68px; height: 675.84px;" xmlns="http://www.w3.org/2000/svg" preserveAspectRatio="none"><rect class="bg" id="bg" x="0" y="0" width="1351.68" height="675.84" fill="#ffffff"/><g transform="&#10;        translate(-2351.9232&#10;        -1294.2336)&#10;        scale(4.58)&#10;                        "><path d="M1056.5,961.5Q1006,1247,692.5,1218.5Q379,1190,231,933Q83,676,265,477.5Q447,279,708,223.5Q969,168,1038,422Q1107,676,1056.5,961.5Z" fill="#dbefff" stroke="none" stroke-width="10"/></g><g transform="&#10;        translate(-2007.2448000000002&#10;        -1121.8944000000001)&#10;        scale(4.07)&#10;                        "><path d="M1056.5,961.5Q1006,1247,692.5,1218.5Q379,1190,231,933Q83,676,265,477.5Q447,279,708,223.5Q969,168,1038,422Q1107,676,1056.5,961.5Z" fill="#c9e7ff" stroke="none" stroke-width="10"/></g><g transform="&#10;        translate(-1662.5664000000002&#10;        -949.5552000000001)&#10;        scale(3.56)&#10;                        "><path d="M1056.5,961.5Q1006,1247,692.5,1218.5Q379,1190,231,933Q83,676,265,477.5Q447,279,708,223.5Q969,168,1038,422Q1107,676,1056.5,961.5Z" fill="#b7dfff" stroke="none" stroke-width="10"/></g><g transform="&#10;        translate(-1317.888&#10;        -777.216)&#10;        scale(3.05)&#10;                        "><path d="M1056.5,961.5Q1006,1247,692.5,1218.5Q379,1190,231,933Q83,676,265,477.5Q447,279,708,223.5Q969,168,1038,422Q1107,676,1056.5,961.5Z" fill="#a5d7ff" stroke="none" stroke-width="10"/></g><g transform="&#10;        translate(-973.2095999999999&#10;        -604.8768)&#10;        scale(2.54)&#10;                        "><path d="M1056.5,961.5Q1006,1247,692.5,1218.5Q379,1190,231,933Q83,676,265,477.5Q447,279,708,223.5Q969,168,1038,422Q1107,676,1056.5,961.5Z" fill="#93cfff" stroke="none" stroke-width="10"/></g><g transform="&#10;        translate(-635.2896000000001&#10;        -435.9168)&#10;        scale(2.04)&#10;                        "><path d="M1056.5,961.5Q1006,1247,692.5,1218.5Q379,1190,231,933Q83,676,265,477.5Q447,279,708,223.5Q969,168,1038,422Q1107,676,1056.5,961.5Z" fill="#81c7ff" stroke="none" stroke-width="10"/></g><g transform="&#10;        translate(-290.61120000000005&#10;        -263.5776)&#10;        scale(1.53)&#10;                        "><path d="M1056.5,961.5Q1006,1247,692.5,1218.5Q379,1190,231,933Q83,676,265,477.5Q447,279,708,223.5Q969,168,1038,422Q1107,676,1056.5,961.5Z" fill="#6fbfff" stroke="none" stroke-width="10"/></g><g transform="&#10;        translate(54.06719999999999&#10;        -91.23840000000001)&#10;        scale(1.02)&#10;                        "><path d="M1056.5,961.5Q1006,1247,692.5,1218.5Q379,1190,231,933Q83,676,265,477.5Q447,279,708,223.5Q969,168,1038,422Q1107,676,1056.5,961.5Z" fill="#5db7ff" stroke="none" stroke-width="10"/></g><g transform="&#10;        translate(398.7456&#10;        81.1008)&#10;        scale(0.51)&#10;                        "><path d="M1056.5,961.5Q1006,1247,692.5,1218.5Q379,1190,231,933Q83,676,265,477.5Q447,279,708,223.5Q969,168,1038,422Q1107,676,1056.5,961.5Z" fill="#4bafff" stroke="none" stroke-width="10"/></g></svg>